<svg xmlns="http://www.w3.org/2000/svg" width="512" height="512" viewBox="0 0 512 512" role="img">
  <title>logo</title>
  <path fill="#bb3937" fill-rule="evenodd" d="M 259 115 L 263 115 L 263 116 L 278 116 L 278 117 L 284 117 L 284 118 L 288 118 L 288 119 L 292 119 L 292 120 L 295 120 L 295 121 L 298 121 L 298 122 L 300 122 L 300 123 L 299 123 L 299 126 L 298 126 L 298 127 L 297 127 L 297 129 L 296 129 L 296 131 L 295 131 L 295 133 L 294 133 L 294 134 L 293 134 L 293 135 L 292 135 L 292 134 L 288 134 L 288 133 L 284 133 L 284 132 L 280 132 L 280 131 L 274 131 L 274 130 L 251 130 L 251 131 L 244 131 L 244 132 L 240 132 L 240 133 L 236 133 L 236 134 L 233 134 L 233 135 L 230 135 L 230 136 L 227 136 L 227 137 L 224 137 L 224 138 L 222 138 L 222 139 L 220 139 L 220 140 L 218 140 L 218 141 L 216 141 L 216 142 L 215 142 L 215 143 L 213 143 L 213 144 L 211 144 L 211 145 L 210 145 L 210 146 L 208 146 L 208 147 L 207 147 L 207 148 L 205 148 L 205 149 L 204 149 L 204 150 L 202 150 L 202 151 L 201 151 L 201 152 L 200 152 L 200 153 L 198 153 L 198 154 L 197 154 L 197 155 L 196 155 L 196 156 L 195 156 L 195 157 L 194 157 L 194 158 L 193 158 L 193 159 L 192 159 L 192 160 L 191 160 L 191 161 L 190 161 L 190 162 L 189 162 L 189 163 L 188 163 L 188 164 L 187 164 L 187 165 L 186 165 L 186 167 L 185 167 L 185 168 L 184 168 L 184 169 L 183 169 L 183 170 L 182 170 L 182 172 L 181 172 L 181 173 L 180 173 L 180 174 L 179 174 L 179 176 L 178 176 L 178 177 L 177 177 L 177 178 L 176 178 L 176 179 L 175 179 L 175 180 L 174 180 L 174 181 L 173 181 L 173 182 L 169 182 L 169 181 L 166 181 L 166 180 L 165 180 L 165 178 L 164 178 L 164 172 L 165 172 L 165 170 L 166 170 L 166 168 L 167 168 L 167 167 L 168 167 L 168 165 L 169 165 L 169 164 L 170 164 L 170 162 L 171 162 L 171 161 L 172 161 L 172 160 L 173 160 L 173 158 L 174 158 L 174 157 L 175 157 L 175 156 L 176 156 L 176 155 L 177 155 L 177 154 L 178 154 L 178 153 L 179 153 L 179 152 L 180 152 L 180 151 L 181 151 L 181 150 L 182 150 L 182 149 L 183 149 L 183 148 L 184 148 L 184 147 L 185 147 L 185 146 L 186 146 L 186 145 L 187 145 L 187 144 L 188 144 L 188 143 L 189 143 L 189 142 L 190 142 L 190 141 L 192 141 L 192 140 L 193 140 L 193 139 L 194 139 L 194 138 L 196 138 L 196 137 L 197 137 L 197 136 L 199 136 L 199 135 L 200 135 L 200 134 L 202 134 L 202 133 L 203 133 L 203 132 L 205 132 L 205 131 L 206 131 L 206 130 L 208 130 L 208 129 L 210 129 L 210 128 L 212 128 L 212 127 L 214 127 L 214 126 L 217 126 L 217 125 L 219 125 L 219 124 L 221 124 L 221 123 L 224 123 L 224 122 L 227 122 L 227 121 L 230 121 L 230 120 L 233 120 L 233 119 L 237 119 L 237 118 L 242 118 L 242 117 L 248 117 L 248 116 L 259 116 Z M 320 131 L 321 131 L 321 132 L 323 132 L 323 133 L 324 133 L 324 134 L 326 134 L 326 135 L 327 135 L 327 136 L 329 136 L 329 137 L 330 137 L 330 138 L 332 138 L 332 139 L 333 139 L 333 140 L 335 140 L 335 141 L 336 141 L 336 142 L 337 142 L 337 143 L 338 143 L 338 144 L 340 144 L 340 145 L 341 145 L 341 146 L 342 146 L 342 147 L 343 147 L 343 148 L 344 148 L 344 149 L 345 149 L 345 150 L 346 150 L 346 151 L 348 151 L 348 152 L 349 152 L 349 153 L 350 153 L 350 155 L 351 155 L 351 156 L 352 156 L 352 157 L 353 157 L 353 158 L 354 158 L 354 159 L 355 159 L 355 160 L 356 160 L 356 161 L 357 161 L 357 163 L 358 163 L 358 164 L 359 164 L 359 166 L 360 166 L 360 167 L 361 167 L 361 168 L 362 168 L 362 170 L 363 170 L 363 172 L 364 172 L 364 173 L 365 173 L 365 175 L 366 175 L 366 177 L 367 177 L 367 179 L 368 179 L 368 181 L 369 181 L 369 183 L 370 183 L 370 185 L 371 185 L 371 188 L 372 188 L 372 190 L 373 190 L 373 193 L 374 193 L 374 197 L 375 197 L 375 201 L 376 201 L 376 207 L 377 207 L 377 234 L 376 234 L 376 239 L 375 239 L 375 243 L 374 243 L 374 246 L 373 246 L 373 249 L 372 249 L 372 252 L 371 252 L 371 255 L 370 255 L 370 257 L 369 257 L 369 259 L 368 259 L 368 261 L 367 261 L 367 263 L 366 263 L 366 265 L 365 265 L 365 267 L 364 267 L 364 268 L 363 268 L 363 270 L 362 270 L 362 272 L 361 272 L 361 273 L 360 273 L 360 274 L 359 274 L 359 276 L 358 276 L 358 277 L 357 277 L 357 278 L 356 278 L 356 280 L 355 280 L 355 281 L 354 281 L 354 282 L 353 282 L 353 283 L 354 283 L 354 285 L 355 285 L 355 286 L 356 286 L 356 287 L 357 287 L 357 289 L 358 289 L 358 290 L 359 290 L 359 291 L 360 291 L 360 292 L 361 292 L 361 293 L 362 293 L 362 294 L 363 294 L 363 296 L 364 296 L 364 297 L 365 297 L 365 298 L 366 298 L 366 299 L 367 299 L 367 300 L 368 300 L 368 301 L 369 301 L 369 303 L 370 303 L 370 304 L 371 304 L 371 305 L 372 305 L 372 306 L 373 306 L 373 307 L 374 307 L 374 308 L 375 308 L 375 310 L 376 310 L 376 311 L 377 311 L 377 312 L 378 312 L 378 314 L 379 314 L 379 315 L 380 315 L 380 316 L 381 316 L 381 317 L 382 317 L 382 319 L 383 319 L 383 320 L 384 320 L 384 322 L 385 322 L 385 323 L 386 323 L 386 325 L 387 325 L 387 327 L 388 327 L 388 328 L 389 328 L 389 330 L 390 330 L 390 331 L 391 331 L 391 333 L 392 333 L 392 335 L 393 335 L 393 337 L 394 337 L 394 338 L 395 338 L 395 340 L 396 340 L 396 342 L 397 342 L 397 344 L 398 344 L 398 346 L 399 346 L 399 348 L 400 348 L 400 350 L 401 350 L 401 353 L 402 353 L 402 356 L 403 356 L 403 359 L 404 359 L 404 362 L 405 362 L 405 366 L 406 366 L 406 372 L 407 372 L 407 394 L 406 394 L 406 398 L 405 398 L 405 401 L 404 401 L 404 404 L 403 404 L 403 406 L 402 406 L 402 408 L 401 408 L 401 410 L 400 410 L 400 412 L 399 412 L 399 413 L 398 413 L 398 415 L 397 415 L 397 416 L 396 416 L 396 417 L 395 417 L 395 418 L 394 418 L 394 420 L 393 420 L 393 421 L 392 421 L 392 422 L 390 422 L 390 423 L 389 423 L 389 424 L 388 424 L 388 425 L 387 425 L 387 426 L 385 426 L 385 427 L 384 427 L 384 428 L 382 428 L 382 429 L 380 429 L 380 430 L 378 430 L 378 431 L 375 431 L 375 432 L 373 432 L 373 433 L 369 433 L 369 434 L 347 434 L 347 433 L 342 433 L 342 432 L 339 432 L 339 431 L 336 431 L 336 430 L 333 430 L 333 429 L 331 429 L 331 428 L 329 428 L 329 427 L 327 427 L 327 426 L 325 426 L 325 425 L 323 425 L 323 424 L 321 424 L 321 423 L 320 423 L 320 422 L 318 422 L 318 421 L 316 421 L 316 420 L 315 420 L 315 419 L 314 419 L 314 418 L 312 418 L 312 417 L 311 417 L 311 416 L 310 416 L 310 415 L 308 415 L 308 414 L 307 414 L 307 413 L 306 413 L 306 412 L 305 412 L 305 411 L 304 411 L 304 410 L 303 410 L 303 409 L 302 409 L 302 408 L 301 408 L 301 407 L 300 407 L 300 406 L 299 406 L 299 405 L 298 405 L 298 404 L 297 404 L 297 403 L 296 403 L 296 402 L 295 402 L 295 401 L 294 401 L 294 400 L 293 400 L 293 399 L 292 399 L 292 398 L 291 398 L 291 396 L 290 396 L 290 395 L 289 395 L 289 394 L 288 394 L 288 393 L 287 393 L 287 391 L 286 391 L 286 390 L 285 390 L 285 389 L 284 389 L 284 387 L 283 387 L 283 386 L 282 386 L 282 384 L 281 384 L 281 383 L 280 383 L 280 381 L 279 381 L 279 379 L 278 379 L 278 378 L 277 378 L 277 376 L 276 376 L 276 374 L 275 374 L 275 372 L 274 372 L 274 366 L 275 366 L 275 365 L 276 365 L 276 364 L 277 364 L 277 363 L 279 363 L 279 362 L 283 362 L 283 363 L 285 363 L 285 364 L 286 364 L 286 365 L 287 365 L 287 366 L 288 366 L 288 368 L 289 368 L 289 370 L 290 370 L 290 372 L 291 372 L 291 373 L 292 373 L 292 375 L 293 375 L 293 376 L 294 376 L 294 378 L 295 378 L 295 379 L 296 379 L 296 380 L 297 380 L 297 382 L 298 382 L 298 383 L 299 383 L 299 384 L 300 384 L 300 386 L 301 386 L 301 387 L 302 387 L 302 388 L 303 388 L 303 389 L 304 389 L 304 390 L 305 390 L 305 391 L 306 391 L 306 392 L 307 392 L 307 393 L 308 393 L 308 394 L 309 394 L 309 395 L 310 395 L 310 396 L 311 396 L 311 397 L 312 397 L 312 398 L 313 398 L 313 399 L 314 399 L 314 400 L 315 400 L 315 401 L 316 401 L 316 402 L 317 402 L 317 403 L 318 403 L 318 404 L 319 404 L 319 405 L 321 405 L 321 406 L 322 406 L 322 407 L 324 407 L 324 408 L 325 408 L 325 409 L 326 409 L 326 410 L 328 410 L 328 411 L 330 411 L 330 412 L 331 412 L 331 413 L 333 413 L 333 414 L 335 414 L 335 415 L 338 415 L 338 416 L 340 416 L 340 417 L 343 417 L 343 418 L 346 418 L 346 419 L 351 419 L 351 420 L 364 420 L 364 419 L 369 419 L 369 418 L 372 418 L 372 417 L 374 417 L 374 416 L 376 416 L 376 415 L 377 415 L 377 414 L 379 414 L 379 413 L 380 413 L 380 412 L 381 412 L 381 411 L 382 411 L 382 410 L 383 410 L 383 409 L 384 409 L 384 408 L 385 408 L 385 407 L 386 407 L 386 405 L 387 405 L 387 403 L 388 403 L 388 401 L 389 401 L 389 399 L 390 399 L 390 397 L 391 397 L 391 394 L 392 394 L 392 389 L 393 389 L 393 375 L 392 375 L 392 370 L 391 370 L 391 366 L 390 366 L 390 363 L 389 363 L 389 360 L 388 360 L 388 357 L 387 357 L 387 355 L 386 355 L 386 353 L 385 353 L 385 351 L 384 351 L 384 349 L 383 349 L 383 347 L 382 347 L 382 345 L 381 345 L 381 343 L 380 343 L 380 341 L 379 341 L 379 340 L 378 340 L 378 338 L 377 338 L 377 336 L 376 336 L 376 335 L 375 335 L 375 333 L 374 333 L 374 332 L 373 332 L 373 330 L 372 330 L 372 329 L 371 329 L 371 328 L 370 328 L 370 326 L 369 326 L 369 325 L 368 325 L 368 324 L 367 324 L 367 322 L 366 322 L 366 321 L 365 321 L 365 320 L 364 320 L 364 318 L 363 318 L 363 317 L 362 317 L 362 316 L 361 316 L 361 315 L 360 315 L 360 313 L 359 313 L 359 312 L 358 312 L 358 311 L 357 311 L 357 310 L 356 310 L 356 309 L 355 309 L 355 308 L 354 308 L 354 306 L 353 306 L 353 305 L 352 305 L 352 304 L 351 304 L 351 303 L 350 303 L 350 302 L 349 302 L 349 301 L 348 301 L 348 299 L 347 299 L 347 298 L 346 298 L 346 297 L 345 297 L 345 296 L 344 296 L 344 295 L 343 295 L 343 294 L 341 294 L 341 295 L 340 295 L 340 296 L 339 296 L 339 297 L 338 297 L 338 298 L 336 298 L 336 299 L 335 299 L 335 300 L 333 300 L 333 301 L 332 301 L 332 302 L 330 302 L 330 303 L 329 303 L 329 304 L 327 304 L 327 305 L 326 305 L 326 306 L 324 306 L 324 307 L 322 307 L 322 308 L 320 308 L 320 309 L 319 309 L 319 310 L 317 310 L 317 311 L 315 311 L 315 312 L 313 312 L 313 313 L 311 313 L 311 314 L 309 314 L 309 315 L 307 315 L 307 316 L 305 316 L 305 317 L 302 317 L 302 318 L 300 318 L 300 319 L 297 319 L 297 320 L 295 320 L 295 321 L 292 321 L 292 322 L 289 322 L 289 323 L 286 323 L 286 324 L 282 324 L 282 325 L 278 325 L 278 326 L 275 326 L 275 327 L 270 327 L 270 328 L 266 328 L 266 329 L 261 329 L 261 330 L 255 330 L 255 331 L 248 331 L 248 332 L 241 332 L 241 333 L 232 333 L 232 334 L 219 334 L 219 335 L 202 335 L 202 336 L 189 336 L 189 335 L 190 335 L 190 334 L 191 334 L 191 332 L 192 332 L 192 331 L 193 331 L 193 329 L 194 329 L 194 328 L 195 328 L 195 326 L 196 326 L 196 325 L 197 325 L 197 323 L 198 323 L 198 322 L 199 322 L 199 321 L 208 321 L 208 320 L 224 320 L 224 319 L 236 319 L 236 318 L 244 318 L 244 317 L 252 317 L 252 316 L 258 316 L 258 315 L 263 315 L 263 314 L 267 314 L 267 313 L 271 313 L 271 312 L 275 312 L 275 311 L 278 311 L 278 310 L 282 310 L 282 309 L 285 309 L 285 308 L 288 308 L 288 307 L 290 307 L 290 306 L 293 306 L 293 305 L 296 305 L 296 304 L 298 304 L 298 303 L 300 303 L 300 302 L 303 302 L 303 301 L 305 301 L 305 300 L 307 300 L 307 299 L 309 299 L 309 298 L 311 298 L 311 297 L 313 297 L 313 296 L 314 296 L 314 295 L 316 295 L 316 294 L 318 294 L 318 293 L 320 293 L 320 292 L 321 292 L 321 291 L 323 291 L 323 290 L 324 290 L 324 289 L 325 289 L 325 288 L 327 288 L 327 287 L 328 287 L 328 286 L 329 286 L 329 285 L 330 285 L 330 284 L 331 284 L 331 283 L 332 283 L 332 282 L 334 282 L 334 281 L 335 281 L 335 280 L 336 280 L 336 279 L 337 279 L 337 278 L 338 278 L 338 277 L 339 277 L 339 276 L 340 276 L 340 275 L 341 275 L 341 274 L 342 274 L 342 273 L 343 273 L 343 272 L 344 272 L 344 271 L 345 271 L 345 269 L 346 269 L 346 268 L 347 268 L 347 267 L 348 267 L 348 265 L 349 265 L 349 264 L 350 264 L 350 262 L 351 262 L 351 261 L 352 261 L 352 259 L 353 259 L 353 257 L 354 257 L 354 255 L 355 255 L 355 253 L 356 253 L 356 251 L 357 251 L 357 248 L 358 248 L 358 246 L 359 246 L 359 243 L 360 243 L 360 239 L 361 239 L 361 235 L 362 235 L 362 229 L 363 229 L 363 210 L 362 210 L 362 205 L 361 205 L 361 201 L 360 201 L 360 197 L 359 197 L 359 194 L 358 194 L 358 191 L 357 191 L 357 189 L 356 189 L 356 187 L 355 187 L 355 185 L 354 185 L 354 183 L 353 183 L 353 181 L 352 181 L 352 180 L 351 180 L 351 178 L 350 178 L 350 177 L 349 177 L 349 175 L 348 175 L 348 174 L 347 174 L 347 173 L 346 173 L 346 171 L 345 171 L 345 170 L 344 170 L 344 169 L 343 169 L 343 168 L 342 168 L 342 167 L 341 167 L 341 165 L 340 165 L 340 164 L 339 164 L 339 163 L 338 163 L 338 162 L 337 162 L 337 161 L 336 161 L 336 160 L 335 160 L 335 159 L 334 159 L 334 158 L 332 158 L 332 157 L 331 157 L 331 156 L 330 156 L 330 155 L 329 155 L 329 154 L 328 154 L 328 153 L 326 153 L 326 152 L 325 152 L 325 151 L 323 151 L 323 150 L 322 150 L 322 149 L 321 149 L 321 148 L 319 148 L 319 147 L 318 147 L 318 146 L 316 146 L 316 145 L 314 145 L 314 144 L 313 144 L 313 143 L 314 143 L 314 141 L 315 141 L 315 139 L 316 139 L 316 137 L 317 137 L 317 136 L 318 136 L 318 134 L 319 134 L 319 132 L 320 132 Z M 293 161 L 294 161 L 294 176 L 295 176 L 295 183 L 296 183 L 296 188 L 297 188 L 297 192 L 298 192 L 298 195 L 299 195 L 299 199 L 300 199 L 300 202 L 301 202 L 301 205 L 302 205 L 302 208 L 303 208 L 303 210 L 304 210 L 304 213 L 305 213 L 305 215 L 306 215 L 306 217 L 307 217 L 307 219 L 308 219 L 308 222 L 309 222 L 309 223 L 310 223 L 310 225 L 311 225 L 311 227 L 312 227 L 312 229 L 313 229 L 313 231 L 314 231 L 314 232 L 315 232 L 315 234 L 316 234 L 316 236 L 317 236 L 317 238 L 318 238 L 318 239 L 319 239 L 319 241 L 320 241 L 320 243 L 321 243 L 321 244 L 322 244 L 322 245 L 323 245 L 323 247 L 324 247 L 324 248 L 325 248 L 325 250 L 326 250 L 326 251 L 327 251 L 327 252 L 328 252 L 328 254 L 329 254 L 329 255 L 330 255 L 330 256 L 331 256 L 331 257 L 332 257 L 332 259 L 333 259 L 333 260 L 334 260 L 334 262 L 335 262 L 335 263 L 336 263 L 336 264 L 337 264 L 337 266 L 336 266 L 336 267 L 335 267 L 335 268 L 334 268 L 334 270 L 333 270 L 333 271 L 332 271 L 332 272 L 331 272 L 331 273 L 330 273 L 330 274 L 328 274 L 328 275 L 327 275 L 327 274 L 326 274 L 326 273 L 325 273 L 325 272 L 324 272 L 324 271 L 323 271 L 323 270 L 322 270 L 322 269 L 321 269 L 321 267 L 320 267 L 320 266 L 319 266 L 319 265 L 318 265 L 318 263 L 317 263 L 317 262 L 316 262 L 316 261 L 315 261 L 315 259 L 314 259 L 314 258 L 313 258 L 313 256 L 312 256 L 312 255 L 311 255 L 311 254 L 310 254 L 310 252 L 309 252 L 309 251 L 308 251 L 308 249 L 307 249 L 307 248 L 306 248 L 306 246 L 305 246 L 305 244 L 304 244 L 304 243 L 303 243 L 303 241 L 302 241 L 302 239 L 301 239 L 301 237 L 300 237 L 300 236 L 299 236 L 299 234 L 298 234 L 298 232 L 297 232 L 297 230 L 296 230 L 296 228 L 295 228 L 295 226 L 294 226 L 294 224 L 293 224 L 293 222 L 292 222 L 292 219 L 291 219 L 291 217 L 290 217 L 290 215 L 289 215 L 289 212 L 288 212 L 288 209 L 287 209 L 287 206 L 286 206 L 286 203 L 285 203 L 285 200 L 284 200 L 284 196 L 283 196 L 283 192 L 282 192 L 282 187 L 281 187 L 281 179 L 282 179 L 282 178 L 283 178 L 283 176 L 284 176 L 284 175 L 285 175 L 285 173 L 286 173 L 286 171 L 287 171 L 287 170 L 288 170 L 288 168 L 289 168 L 289 167 L 290 167 L 290 165 L 291 165 L 291 164 L 292 164 L 292 163 L 293 163 Z M 152 325 L 161 325 L 161 328 L 160 328 L 160 330 L 159 330 L 159 332 L 158 332 L 158 334 L 157 334 L 157 335 L 156 335 L 156 337 L 155 337 L 155 339 L 154 339 L 154 340 L 150 340 L 150 341 L 146 341 L 146 342 L 142 342 L 142 343 L 137 343 L 137 344 L 134 344 L 134 345 L 130 345 L 130 346 L 127 346 L 127 347 L 125 347 L 125 348 L 122 348 L 122 349 L 120 349 L 120 350 L 118 350 L 118 351 L 116 351 L 116 352 L 114 352 L 114 353 L 112 353 L 112 354 L 110 354 L 110 355 L 109 355 L 109 356 L 107 356 L 107 357 L 106 357 L 106 358 L 105 358 L 105 359 L 103 359 L 103 360 L 102 360 L 102 361 L 101 361 L 101 362 L 100 362 L 100 363 L 99 363 L 99 364 L 98 364 L 98 365 L 97 365 L 97 366 L 96 366 L 96 367 L 95 367 L 95 368 L 94 368 L 94 369 L 93 369 L 93 370 L 92 370 L 92 372 L 91 372 L 91 373 L 90 373 L 90 375 L 89 375 L 89 376 L 88 376 L 88 378 L 87 378 L 87 380 L 86 380 L 86 382 L 85 382 L 85 384 L 84 384 L 84 385 L 83 385 L 83 386 L 80 386 L 80 387 L 77 387 L 77 386 L 75 386 L 75 385 L 74 385 L 74 384 L 73 384 L 73 383 L 72 383 L 72 376 L 73 376 L 73 374 L 74 374 L 74 372 L 75 372 L 75 370 L 76 370 L 76 368 L 77 368 L 77 367 L 78 367 L 78 365 L 79 365 L 79 364 L 80 364 L 80 362 L 81 362 L 81 361 L 82 361 L 82 360 L 83 360 L 83 359 L 84 359 L 84 358 L 85 358 L 85 356 L 86 356 L 86 355 L 87 355 L 87 354 L 88 354 L 88 353 L 89 353 L 89 352 L 90 352 L 90 351 L 91 351 L 91 350 L 93 350 L 93 349 L 94 349 L 94 348 L 95 348 L 95 347 L 96 347 L 96 346 L 98 346 L 98 345 L 99 345 L 99 344 L 101 344 L 101 343 L 102 343 L 102 342 L 104 342 L 104 341 L 106 341 L 106 340 L 108 340 L 108 339 L 110 339 L 110 338 L 112 338 L 112 337 L 114 337 L 114 336 L 116 336 L 116 335 L 118 335 L 118 334 L 121 334 L 121 333 L 123 333 L 123 332 L 127 332 L 127 331 L 130 331 L 130 330 L 133 330 L 133 329 L 137 329 L 137 328 L 141 328 L 141 327 L 147 327 L 147 326 L 152 326 Z"/>
  <path fill="#17263d" fill-rule="evenodd" d="M 302 85 L 311 85 L 311 86 L 313 86 L 313 87 L 315 87 L 315 88 L 316 88 L 316 89 L 317 89 L 317 91 L 318 91 L 318 92 L 319 92 L 319 95 L 320 95 L 320 105 L 319 105 L 319 110 L 318 110 L 318 113 L 317 113 L 317 116 L 316 116 L 316 119 L 315 119 L 315 121 L 314 121 L 314 124 L 313 124 L 313 126 L 312 126 L 312 128 L 311 128 L 311 130 L 310 130 L 310 132 L 309 132 L 309 134 L 308 134 L 308 136 L 307 136 L 307 138 L 306 138 L 306 140 L 305 140 L 305 142 L 304 142 L 304 143 L 303 143 L 303 145 L 302 145 L 302 147 L 301 147 L 301 149 L 300 149 L 300 150 L 299 150 L 299 152 L 298 152 L 298 153 L 297 153 L 297 155 L 296 155 L 296 157 L 295 157 L 295 158 L 294 158 L 294 161 L 293 161 L 293 163 L 292 163 L 292 164 L 291 164 L 291 165 L 290 165 L 290 167 L 289 167 L 289 168 L 288 168 L 288 170 L 287 170 L 287 171 L 286 171 L 286 173 L 285 173 L 285 175 L 284 175 L 284 176 L 283 176 L 283 178 L 282 178 L 282 179 L 281 179 L 281 181 L 280 181 L 280 182 L 279 182 L 279 183 L 278 183 L 278 185 L 277 185 L 277 186 L 276 186 L 276 188 L 275 188 L 275 189 L 274 189 L 274 191 L 273 191 L 273 192 L 272 192 L 272 194 L 271 194 L 271 195 L 270 195 L 270 197 L 269 197 L 269 198 L 268 198 L 268 200 L 267 200 L 267 201 L 266 201 L 266 203 L 265 203 L 265 205 L 264 205 L 264 206 L 263 206 L 263 208 L 262 208 L 262 209 L 261 209 L 261 211 L 260 211 L 260 212 L 259 212 L 259 214 L 258 214 L 258 215 L 257 215 L 257 217 L 256 217 L 256 218 L 255 218 L 255 220 L 254 220 L 254 221 L 253 221 L 253 223 L 252 223 L 252 225 L 251 225 L 251 226 L 250 226 L 250 228 L 249 228 L 249 229 L 248 229 L 248 231 L 247 231 L 247 232 L 246 232 L 246 234 L 245 234 L 245 235 L 244 235 L 244 237 L 243 237 L 243 238 L 242 238 L 242 240 L 241 240 L 241 241 L 240 241 L 240 243 L 239 243 L 239 244 L 238 244 L 238 246 L 237 246 L 237 247 L 236 247 L 236 249 L 235 249 L 235 251 L 234 251 L 234 252 L 233 252 L 233 254 L 232 254 L 232 255 L 231 255 L 231 257 L 230 257 L 230 258 L 229 258 L 229 260 L 228 260 L 228 261 L 227 261 L 227 263 L 226 263 L 226 264 L 225 264 L 225 266 L 224 266 L 224 267 L 223 267 L 223 269 L 222 269 L 222 270 L 221 270 L 221 272 L 220 272 L 220 274 L 219 274 L 219 275 L 218 275 L 218 277 L 217 277 L 217 278 L 216 278 L 216 280 L 215 280 L 215 281 L 214 281 L 214 283 L 213 283 L 213 284 L 212 284 L 212 286 L 211 286 L 211 287 L 210 287 L 210 289 L 209 289 L 209 290 L 208 290 L 208 292 L 207 292 L 207 294 L 206 294 L 206 295 L 205 295 L 205 297 L 204 297 L 204 298 L 203 298 L 203 300 L 202 300 L 202 301 L 201 301 L 201 303 L 200 303 L 200 304 L 199 304 L 199 306 L 198 306 L 198 307 L 197 307 L 197 309 L 196 309 L 196 310 L 195 310 L 195 312 L 194 312 L 194 313 L 193 313 L 193 315 L 192 315 L 192 316 L 191 316 L 191 318 L 190 318 L 190 320 L 189 320 L 189 321 L 188 321 L 188 323 L 187 323 L 187 324 L 186 324 L 186 326 L 185 326 L 185 327 L 184 327 L 184 329 L 183 329 L 183 330 L 182 330 L 182 332 L 181 332 L 181 333 L 180 333 L 180 335 L 179 335 L 179 336 L 178 336 L 178 338 L 177 338 L 177 339 L 176 339 L 176 341 L 175 341 L 175 343 L 174 343 L 174 344 L 173 344 L 173 346 L 172 346 L 172 347 L 171 347 L 171 349 L 170 349 L 170 350 L 169 350 L 169 352 L 168 352 L 168 353 L 167 353 L 167 355 L 166 355 L 166 357 L 165 357 L 165 358 L 164 358 L 164 360 L 163 360 L 163 361 L 162 361 L 162 363 L 161 363 L 161 364 L 160 364 L 160 366 L 159 366 L 159 367 L 158 367 L 158 369 L 157 369 L 157 370 L 156 370 L 156 372 L 155 372 L 155 373 L 154 373 L 154 375 L 153 375 L 153 377 L 152 377 L 152 378 L 151 378 L 151 380 L 150 380 L 150 381 L 149 381 L 149 383 L 148 383 L 148 384 L 147 384 L 147 386 L 146 386 L 146 387 L 145 387 L 145 389 L 144 389 L 144 390 L 143 390 L 143 392 L 142 392 L 142 394 L 141 394 L 141 395 L 140 395 L 140 397 L 139 397 L 139 398 L 138 398 L 138 400 L 137 400 L 137 401 L 136 401 L 136 403 L 135 403 L 135 404 L 134 404 L 134 406 L 133 406 L 133 408 L 132 408 L 132 409 L 131 409 L 131 411 L 130 411 L 130 412 L 129 412 L 129 414 L 128 414 L 128 415 L 127 415 L 127 417 L 126 417 L 126 418 L 125 418 L 125 420 L 124 420 L 124 421 L 123 421 L 123 423 L 122 423 L 122 424 L 121 424 L 121 426 L 120 426 L 120 428 L 119 428 L 119 429 L 118 429 L 118 431 L 117 431 L 117 432 L 116 432 L 116 434 L 115 434 L 115 435 L 114 435 L 114 437 L 113 437 L 113 438 L 112 438 L 112 440 L 111 440 L 111 442 L 110 442 L 110 443 L 109 443 L 109 445 L 108 445 L 108 446 L 107 446 L 107 448 L 106 448 L 106 449 L 105 449 L 105 450 L 104 450 L 104 452 L 103 452 L 103 453 L 102 453 L 102 454 L 101 454 L 101 456 L 100 456 L 100 457 L 99 457 L 99 458 L 98 458 L 98 459 L 97 459 L 97 460 L 96 460 L 96 457 L 97 457 L 97 454 L 98 454 L 98 452 L 99 452 L 99 449 L 100 449 L 100 447 L 101 447 L 101 445 L 102 445 L 102 443 L 103 443 L 103 441 L 104 441 L 104 439 L 105 439 L 105 437 L 106 437 L 106 435 L 107 435 L 107 433 L 108 433 L 108 431 L 109 431 L 109 429 L 110 429 L 110 426 L 111 426 L 111 424 L 112 424 L 112 422 L 113 422 L 113 420 L 114 420 L 114 418 L 115 418 L 115 416 L 116 416 L 116 415 L 117 415 L 117 413 L 118 413 L 118 411 L 119 411 L 119 409 L 120 409 L 120 407 L 121 407 L 121 405 L 122 405 L 122 403 L 123 403 L 123 401 L 124 401 L 124 399 L 125 399 L 125 397 L 126 397 L 126 395 L 127 395 L 127 393 L 128 393 L 128 391 L 129 391 L 129 389 L 130 389 L 130 387 L 131 387 L 131 385 L 132 385 L 132 383 L 133 383 L 133 381 L 134 381 L 134 379 L 135 379 L 135 377 L 136 377 L 136 375 L 137 375 L 137 373 L 138 373 L 138 371 L 139 371 L 139 369 L 140 369 L 140 367 L 141 367 L 141 365 L 142 365 L 142 364 L 143 364 L 143 362 L 144 362 L 144 360 L 145 360 L 145 358 L 146 358 L 146 356 L 147 356 L 147 354 L 148 354 L 148 352 L 149 352 L 149 350 L 150 350 L 150 348 L 151 348 L 151 346 L 152 346 L 152 344 L 153 344 L 153 342 L 154 342 L 154 339 L 155 339 L 155 337 L 156 337 L 156 335 L 157 335 L 157 334 L 158 334 L 158 332 L 159 332 L 159 330 L 160 330 L 160 328 L 161 328 L 161 325 L 162 325 L 162 324 L 163 324 L 163 323 L 164 323 L 164 321 L 165 321 L 165 319 L 166 319 L 166 317 L 167 317 L 167 315 L 168 315 L 168 313 L 169 313 L 169 311 L 170 311 L 170 309 L 171 309 L 171 307 L 172 307 L 172 305 L 173 305 L 173 303 L 174 303 L 174 301 L 175 301 L 175 299 L 176 299 L 176 298 L 177 298 L 177 296 L 178 296 L 178 294 L 179 294 L 179 292 L 180 292 L 180 290 L 181 290 L 181 288 L 182 288 L 182 286 L 183 286 L 183 284 L 184 284 L 184 282 L 185 282 L 185 280 L 186 280 L 186 278 L 187 278 L 187 276 L 188 276 L 188 274 L 189 274 L 189 272 L 190 272 L 190 270 L 191 270 L 191 268 L 192 268 L 192 266 L 193 266 L 193 264 L 194 264 L 194 263 L 195 263 L 195 261 L 196 261 L 196 259 L 197 259 L 197 257 L 198 257 L 198 255 L 199 255 L 199 253 L 200 253 L 200 251 L 201 251 L 201 249 L 202 249 L 202 247 L 203 247 L 203 245 L 204 245 L 204 243 L 205 243 L 205 241 L 206 241 L 206 239 L 207 239 L 207 237 L 208 237 L 208 235 L 209 235 L 209 233 L 210 233 L 210 231 L 211 231 L 211 229 L 212 229 L 212 227 L 213 227 L 213 225 L 214 225 L 214 224 L 215 224 L 215 222 L 216 222 L 216 220 L 217 220 L 217 218 L 218 218 L 218 216 L 219 216 L 219 214 L 220 214 L 220 212 L 221 212 L 221 210 L 222 210 L 222 208 L 223 208 L 223 206 L 224 206 L 224 204 L 225 204 L 225 202 L 226 202 L 226 200 L 227 200 L 227 198 L 228 198 L 228 197 L 229 197 L 229 195 L 230 195 L 230 193 L 231 193 L 231 191 L 232 191 L 232 189 L 233 189 L 233 187 L 234 187 L 234 185 L 235 185 L 235 183 L 236 183 L 236 181 L 237 181 L 237 179 L 238 179 L 238 177 L 239 177 L 239 175 L 240 175 L 240 173 L 241 173 L 241 171 L 242 171 L 242 169 L 243 169 L 243 167 L 244 167 L 244 165 L 245 165 L 245 163 L 246 163 L 246 162 L 247 162 L 247 160 L 248 160 L 248 158 L 249 158 L 249 156 L 250 156 L 250 154 L 251 154 L 251 152 L 252 152 L 252 150 L 253 150 L 253 148 L 254 148 L 254 146 L 255 146 L 255 144 L 256 144 L 256 142 L 257 142 L 257 140 L 258 140 L 258 139 L 259 139 L 259 138 L 269 138 L 269 139 L 273 139 L 273 141 L 272 141 L 272 143 L 271 143 L 271 145 L 270 145 L 270 147 L 269 147 L 269 150 L 268 150 L 268 152 L 267 152 L 267 156 L 266 156 L 266 164 L 268 164 L 268 165 L 269 165 L 269 164 L 271 164 L 271 163 L 272 163 L 272 162 L 273 162 L 273 161 L 274 161 L 274 160 L 276 160 L 276 159 L 277 159 L 277 157 L 278 157 L 278 156 L 279 156 L 279 155 L 280 155 L 280 154 L 281 154 L 281 153 L 282 153 L 282 151 L 283 151 L 283 150 L 284 150 L 284 149 L 285 149 L 285 147 L 286 147 L 286 146 L 287 146 L 287 144 L 288 144 L 288 143 L 289 143 L 289 141 L 290 141 L 290 140 L 291 140 L 291 138 L 292 138 L 292 137 L 293 137 L 293 134 L 294 134 L 294 133 L 295 133 L 295 131 L 296 131 L 296 129 L 297 129 L 297 127 L 298 127 L 298 126 L 299 126 L 299 123 L 300 123 L 300 122 L 301 122 L 301 119 L 302 119 L 302 117 L 303 117 L 303 114 L 304 114 L 304 111 L 305 111 L 305 107 L 306 107 L 306 101 L 305 101 L 305 100 L 303 100 L 303 101 L 301 101 L 301 102 L 299 102 L 299 103 L 298 103 L 298 104 L 297 104 L 297 105 L 296 105 L 296 106 L 295 106 L 295 107 L 294 107 L 294 108 L 293 108 L 293 109 L 292 109 L 292 110 L 291 110 L 291 111 L 290 111 L 290 110 L 286 110 L 286 109 L 280 109 L 280 108 L 277 108 L 277 107 L 278 107 L 278 106 L 279 106 L 279 104 L 280 104 L 280 103 L 281 103 L 281 102 L 282 102 L 282 101 L 283 101 L 283 99 L 284 99 L 284 98 L 285 98 L 285 97 L 286 97 L 286 96 L 287 96 L 287 95 L 288 95 L 288 94 L 289 94 L 289 93 L 291 93 L 291 92 L 292 92 L 292 91 L 293 91 L 293 90 L 294 90 L 294 89 L 296 89 L 296 88 L 298 88 L 298 87 L 300 87 L 300 86 L 302 86 Z"/>
  <path fill="#d4b2b2" fill-rule="evenodd" d="M 255 114 L 270 114 L 270 115 L 280 115 L 280 116 L 285 116 L 285 117 L 290 117 L 290 118 L 293 118 L 293 119 L 296 119 L 296 120 L 300 120 L 300 119 L 301 119 L 301 121 L 300 121 L 300 122 L 298 122 L 298 121 L 295 121 L 295 120 L 292 120 L 292 119 L 288 119 L 288 118 L 284 118 L 284 117 L 278 117 L 278 116 L 263 116 L 263 115 L 259 115 L 259 116 L 248 116 L 248 117 L 242 117 L 242 118 L 237 118 L 237 119 L 233 119 L 233 120 L 230 120 L 230 121 L 227 121 L 227 122 L 224 122 L 224 123 L 221 123 L 221 122 L 223 122 L 223 121 L 226 121 L 226 120 L 229 120 L 229 119 L 232 119 L 232 118 L 236 118 L 236 117 L 240 117 L 240 116 L 246 116 L 246 115 L 255 115 Z M 251 130 L 274 130 L 274 131 L 280 131 L 280 132 L 284 132 L 284 133 L 288 133 L 288 134 L 292 134 L 292 135 L 293 135 L 293 136 L 292 136 L 292 138 L 291 138 L 291 136 L 290 136 L 290 135 L 287 135 L 287 134 L 283 134 L 283 133 L 279 133 L 279 132 L 272 132 L 272 131 L 252 131 L 252 132 L 245 132 L 245 133 L 240 133 L 240 132 L 244 132 L 244 131 L 251 131 Z M 187 142 L 189 142 L 189 143 L 188 143 L 188 144 L 187 144 L 187 145 L 186 145 L 186 146 L 185 146 L 185 147 L 184 147 L 184 148 L 183 148 L 183 149 L 182 149 L 182 150 L 181 150 L 181 151 L 180 151 L 180 152 L 179 152 L 179 153 L 178 153 L 178 154 L 177 154 L 177 155 L 176 155 L 176 156 L 175 156 L 175 157 L 174 157 L 174 155 L 175 155 L 175 154 L 176 154 L 176 153 L 177 153 L 177 152 L 178 152 L 178 151 L 179 151 L 179 150 L 180 150 L 180 149 L 181 149 L 181 148 L 182 148 L 182 147 L 183 147 L 183 146 L 184 146 L 184 145 L 185 145 L 185 144 L 186 144 L 186 143 L 187 143 Z M 295 157 L 296 157 L 296 159 L 295 159 L 295 175 L 296 175 L 296 182 L 297 182 L 297 187 L 298 187 L 298 191 L 299 191 L 299 194 L 300 194 L 300 198 L 301 198 L 301 201 L 302 201 L 302 205 L 301 205 L 301 202 L 300 202 L 300 199 L 299 199 L 299 195 L 298 195 L 298 192 L 297 192 L 297 188 L 296 188 L 296 183 L 295 183 L 295 176 L 294 176 L 294 158 L 295 158 Z M 274 310 L 278 310 L 278 311 L 275 311 L 275 312 L 271 312 L 271 313 L 267 313 L 267 314 L 263 314 L 263 315 L 258 315 L 258 316 L 252 316 L 252 317 L 244 317 L 244 318 L 236 318 L 236 319 L 224 319 L 224 320 L 208 320 L 208 321 L 199 321 L 199 322 L 198 322 L 198 323 L 197 323 L 197 321 L 198 321 L 198 320 L 205 320 L 205 319 L 223 319 L 223 318 L 235 318 L 235 317 L 242 317 L 242 316 L 251 316 L 251 315 L 256 315 L 256 314 L 261 314 L 261 313 L 265 313 L 265 312 L 269 312 L 269 311 L 274 311 Z M 270 327 L 275 327 L 275 328 L 271 328 L 271 329 L 267 329 L 267 330 L 262 330 L 262 331 L 257 331 L 257 332 L 250 332 L 250 333 L 243 333 L 243 334 L 234 334 L 234 335 L 223 335 L 223 336 L 204 336 L 204 337 L 188 337 L 188 335 L 189 335 L 189 336 L 202 336 L 202 335 L 219 335 L 219 334 L 232 334 L 232 333 L 241 333 L 241 332 L 248 332 L 248 331 L 255 331 L 255 330 L 261 330 L 261 329 L 266 329 L 266 328 L 270 328 Z M 120 332 L 123 332 L 123 333 L 121 333 L 121 334 L 118 334 L 118 335 L 116 335 L 116 336 L 114 336 L 114 337 L 112 337 L 112 338 L 110 338 L 110 339 L 108 339 L 108 340 L 106 340 L 106 341 L 104 341 L 104 340 L 105 340 L 105 339 L 107 339 L 107 338 L 109 338 L 109 337 L 111 337 L 111 336 L 113 336 L 113 335 L 115 335 L 115 334 L 117 334 L 117 333 L 120 333 Z M 278 361 L 284 361 L 284 362 L 286 362 L 286 363 L 287 363 L 287 364 L 288 364 L 288 366 L 287 366 L 287 365 L 286 365 L 286 364 L 285 364 L 285 363 L 283 363 L 283 362 L 279 362 L 279 363 L 277 363 L 277 364 L 276 364 L 276 365 L 275 365 L 275 366 L 274 366 L 274 372 L 275 372 L 275 374 L 276 374 L 276 376 L 277 376 L 277 378 L 276 378 L 276 377 L 275 377 L 275 375 L 274 375 L 274 373 L 273 373 L 273 370 L 272 370 L 272 369 L 273 369 L 273 365 L 274 365 L 274 364 L 275 364 L 275 363 L 276 363 L 276 362 L 278 362 Z M 389 363 L 390 363 L 390 366 L 391 366 L 391 370 L 392 370 L 392 375 L 393 375 L 393 389 L 392 389 L 392 394 L 391 394 L 391 397 L 390 397 L 390 399 L 389 399 L 389 396 L 390 396 L 390 393 L 391 393 L 391 388 L 392 388 L 392 377 L 391 377 L 391 371 L 390 371 L 390 367 L 389 367 Z M 292 399 L 293 399 L 293 400 L 294 400 L 294 401 L 295 401 L 295 402 L 296 402 L 296 403 L 297 403 L 297 404 L 298 404 L 298 405 L 299 405 L 299 406 L 300 406 L 300 407 L 301 407 L 301 408 L 302 408 L 302 409 L 303 409 L 303 410 L 304 410 L 304 411 L 305 411 L 305 412 L 306 412 L 306 413 L 304 413 L 304 412 L 303 412 L 303 411 L 302 411 L 302 410 L 301 410 L 301 409 L 300 409 L 300 408 L 299 408 L 299 407 L 298 407 L 298 406 L 297 406 L 297 405 L 296 405 L 296 404 L 295 404 L 295 403 L 294 403 L 294 402 L 293 402 L 293 401 L 292 401 Z M 382 428 L 384 428 L 384 429 L 383 429 L 383 430 L 381 430 L 381 431 L 379 431 L 379 432 L 376 432 L 376 433 L 374 433 L 374 434 L 370 434 L 370 435 L 361 435 L 361 436 L 354 436 L 354 435 L 346 435 L 346 434 L 341 434 L 341 433 L 338 433 L 338 432 L 335 432 L 335 431 L 333 431 L 333 430 L 336 430 L 336 431 L 339 431 L 339 432 L 342 432 L 342 433 L 347 433 L 347 434 L 369 434 L 369 433 L 373 433 L 373 432 L 375 432 L 375 431 L 378 431 L 378 430 L 380 430 L 380 429 L 382 429 Z"/>
</svg>